<svg width="32" height="32" viewBox="0 0 32 32" fill="none" xmlns="http://www.w3.org/2000/svg">
<path d="M9.33331 29.3333C8.59998 29.3333 7.97198 29.072 7.44931 28.5493C6.92665 28.0267 6.66576 27.3991 6.66665 26.6667C6.66665 25.9333 6.92798 25.3053 7.45065 24.7827C7.97331 24.26 8.60087 23.9991 9.33331 24C10.0666 24 10.6946 24.2613 11.2173 24.784C11.74 25.3067 12.0009 25.9342 12 26.6667C12 27.4 11.7386 28.028 11.216 28.5507C10.6933 29.0733 10.0658 29.3342 9.33331 29.3333ZM22.6666 29.3333C21.9333 29.3333 21.3053 29.072 20.7826 28.5493C20.26 28.0267 19.9991 27.3991 20 26.6667C20 25.9333 20.2613 25.3053 20.784 24.7827C21.3066 24.26 21.9342 23.9991 22.6666 24C23.4 24 24.028 24.2613 24.5506 24.784C25.0733 25.3067 25.3342 25.9342 25.3333 26.6667C25.3333 27.4 25.072 28.028 24.5493 28.5507C24.0266 29.0733 23.3991 29.3342 22.6666 29.3333ZM8.19998 7.99999L11.4 14.6667H20.7333L24.4 7.99999H8.19998ZM6.93331 5.33332H26.6C27.1111 5.33332 27.5 5.56132 27.7666 6.01732C28.0333 6.47332 28.0444 6.93421 27.8 7.39999L23.0666 15.9333C22.8222 16.3778 22.4942 16.7222 22.0826 16.9667C21.6711 17.2111 21.2213 17.3333 20.7333 17.3333H10.8L9.33331 20H25.3333V22.6667H9.33331C8.33331 22.6667 7.57776 22.2275 7.06665 21.3493C6.55554 20.4711 6.53331 19.5991 6.99998 18.7333L8.79998 15.4667L3.99998 5.33332H1.33331V2.66666H5.66665L6.93331 5.33332Z" fill="#525252"/>
</svg>
