<svg width="23" height="21" viewBox="0 0 23 21" fill="none" xmlns="http://www.w3.org/2000/svg">
<path d="M20.3059 1.17889C17.2711 -0.96313 13.5235 0.0364789 11.5003 2.4879C9.47709 0.0364789 5.72954 -0.97503 2.6947 1.17889C1.08532 2.3213 0.0737091 4.24911 0.00473558 6.28403C-0.156203 10.9013 3.79828 14.6022 9.83346 20.2786L9.94841 20.3856C10.8221 21.2068 12.1671 21.2068 13.0407 20.3737L13.1672 20.2547C19.2024 14.5903 23.1453 10.8894 22.9959 6.27213C22.9269 4.24911 21.9153 2.3213 20.3059 1.17889ZM11.6153 18.5054L11.5003 18.6244L11.3854 18.5054C5.91346 13.3765 2.30385 9.98496 2.30385 6.54583C2.30385 4.16581 4.02819 2.3808 6.3273 2.3808C8.09762 2.3808 9.82196 3.55891 10.4312 5.18922H12.5809C13.1787 3.55891 14.903 2.3808 16.6733 2.3808C18.9724 2.3808 20.6968 4.16581 20.6968 6.54583C20.6968 9.98496 17.0872 13.3765 11.6153 18.5054Z" fill="black"/>
</svg>
