<svg width="27" height="15" viewBox="0 0 27 15" fill="none" xmlns="http://www.w3.org/2000/svg">
<path d="M8.1504 14.1316L0.326034 7.86668C0.207483 7.77176 0.123311 7.66893 0.0735199 7.55819C0.0237285 7.44744 -0.000771816 7.32879 1.85238e-05 7.20223C1.85238e-05 7.07566 0.0249145 6.95701 0.0747059 6.84626C0.124497 6.73552 0.208273 6.63269 0.326034 6.53777L8.1504 0.272867C8.36774 0.0988424 8.63962 0.00803333 8.96603 0.000439515C9.29244 -0.0071543 9.5738 0.0836548 9.81011 0.272867C10.0472 0.446892 10.1709 0.664582 10.1812 0.925936C10.1914 1.18729 10.0776 1.41257 9.83975 1.60179L4.03075 6.253H25.8145C26.1504 6.253 26.4321 6.34412 26.6598 6.52638C26.8874 6.70863 27.0008 6.93391 27 7.20223C27 7.47117 26.8866 7.69677 26.6598 7.87902C26.4329 8.06128 26.1512 8.15209 25.8145 8.15145H4.03075L9.83975 12.8027C10.0571 12.9767 10.1709 13.1982 10.1812 13.4671C10.1914 13.7361 10.0776 13.9576 9.83975 14.1316C9.6224 14.3214 9.34579 14.4164 9.00989 14.4164C8.674 14.4164 8.3875 14.3214 8.1504 14.1316Z" fill="#525252"/>
</svg>
