<svg width="37" height="37" viewBox="0 0 37 37" fill="none" xmlns="http://www.w3.org/2000/svg">
<path d="M18.5 11.5625C19.7772 11.5625 20.8125 10.5272 20.8125 9.25C20.8125 7.97284 19.7772 6.9375 18.5 6.9375C17.2228 6.9375 16.1875 7.97284 16.1875 9.25C16.1875 10.5272 17.2228 11.5625 18.5 11.5625Z" fill="#525252"/>
<path d="M18.5 20.8125C19.7772 20.8125 20.8125 19.7772 20.8125 18.5C20.8125 17.2228 19.7772 16.1875 18.5 16.1875C17.2228 16.1875 16.1875 17.2228 16.1875 18.5C16.1875 19.7772 17.2228 20.8125 18.5 20.8125Z" fill="#525252"/>
<path d="M18.5 30.0625C19.7772 30.0625 20.8125 29.0272 20.8125 27.75C20.8125 26.4728 19.7772 25.4375 18.5 25.4375C17.2228 25.4375 16.1875 26.4728 16.1875 27.75C16.1875 29.0272 17.2228 30.0625 18.5 30.0625Z" fill="#525252"/>
</svg>
